<svg width="64" height="64" viewBox="0 0 64 64" fill="none" xmlns="http://www.w3.org/2000/svg">
  <defs>
    <linearGradient id="favGlow" x1="14" y1="11" x2="52" y2="57" gradientUnits="userSpaceOnUse">
      <stop stop-color="#FFB49A"/>
      <stop offset="0.56" stop-color="#FF8A63"/>
      <stop offset="1" stop-color="#E65F44"/>
    </linearGradient>
    <linearGradient id="favSurface" x1="8" y1="7" x2="59" y2="61" gradientUnits="userSpaceOnUse">
      <stop stop-color="#1C2938"/>
      <stop offset="1" stop-color="#0E1924"/>
    </linearGradient>
  </defs>

  <rect x="6" y="6" width="52" height="52" rx="15" fill="url(#favSurface)"/>
  <rect x="6.75" y="6.75" width="50.5" height="50.5" rx="14.25" stroke="#EAF1F8" stroke-opacity="0.2" stroke-width="1.5"/>

  <path d="M20 42V26.2C20 22.9 22.7 20.2 26 20.2H30.9V47.8H26C22.7 47.8 20 45.1 20 42Z" fill="url(#favGlow)"/>
  <path d="M33.3 47.8V20.2H38.2C41.5 20.2 44.2 22.9 44.2 26.2V42C44.2 45.3 41.5 47.8 38.2 47.8H33.3Z" fill="url(#favGlow)" fill-opacity="0.9"/>
  <path d="M30.95 20.2H33.25V47.8H30.95V20.2Z" fill="#FFE0D0" fill-opacity="0.88"/>
</svg>
