<svg width="420" height="92" viewBox="0 0 420 92" fill="none" xmlns="http://www.w3.org/2000/svg" role="img" aria-labelledby="logoTitle logoDesc">
  <title id="logoTitle">PaperStool Logo</title>
  <desc id="logoDesc">PaperStool wordmark with fold motif icon.</desc>
  <defs>
    <linearGradient id="brandGlow" x1="18" y1="14" x2="78" y2="82" gradientUnits="userSpaceOnUse">
      <stop stop-color="#FFB294"/>
      <stop offset="0.55" stop-color="#FF8A63"/>
      <stop offset="1" stop-color="#E65F44"/>
    </linearGradient>
    <linearGradient id="markSurface" x1="14" y1="10" x2="82" y2="84" gradientUnits="userSpaceOnUse">
      <stop stop-color="#1D2A39" stop-opacity="0.92"/>
      <stop offset="1" stop-color="#101A25" stop-opacity="0.98"/>
    </linearGradient>
  </defs>

  <rect x="8" y="8" width="76" height="76" rx="22" fill="url(#markSurface)"/>
  <rect x="8.75" y="8.75" width="74.5" height="74.5" rx="21.25" stroke="#E7EEF6" stroke-opacity="0.2" stroke-width="1.5"/>

  <path d="M28.5 57.7V33.5C28.5 28.7 32.4 24.8 37.2 24.8H44.2V66.4H37.2C32.4 66.4 28.5 62.5 28.5 57.7Z" fill="url(#brandGlow)"/>
  <path d="M47.8 66.4V24.8H54.8C59.6 24.8 63.5 28.7 63.5 33.5V57.7C63.5 62.5 59.6 66.4 54.8 66.4H47.8Z" fill="url(#brandGlow)" fill-opacity="0.88"/>
  <path d="M44.4 24.8H47.7V66.4H44.4V24.8Z" fill="#FFD8C8" fill-opacity="0.85"/>

  <path d="M110 61H106.6V30.8H117.6C124 30.8 127.8 34.1 127.8 39.9C127.8 45.7 124 48.9 117.6 48.9H110V61ZM110 45.9H117.4C121.8 45.9 124.3 43.8 124.3 39.9C124.3 35.9 121.8 33.8 117.4 33.8H110V45.9Z" fill="#EDF3F8"/>
  <path d="M131.2 50.9C131.2 44.8 135.6 40.8 141.7 40.8C147.8 40.8 152.1 44.8 152.1 50.9C152.1 56.9 147.8 61 141.7 61C135.6 61 131.2 56.9 131.2 50.9ZM148.7 50.9C148.7 46.5 145.8 43.6 141.7 43.6C137.5 43.6 134.6 46.5 134.6 50.9C134.6 55.2 137.5 58.1 141.7 58.1C145.8 58.1 148.7 55.2 148.7 50.9Z" fill="#EDF3F8"/>
  <path d="M159 61L152.2 41.1H155.6L161.5 58.4L167.4 41.1H170.7L176.6 58.4L182.5 41.1H185.8L179.1 61H174.4L169 45.1L163.6 61H159Z" fill="#EDF3F8"/>
  <path d="M188.3 50.9C188.3 45 192.5 40.8 198.3 40.8C204.2 40.8 208.2 44.9 208.2 50.7V51.8H191.7C192.2 55.8 195 58.3 199 58.3C201.8 58.3 204 57.2 205.6 55L207.7 57C205.7 59.6 202.8 61 199 61C192.8 61 188.3 56.8 188.3 50.9ZM191.8 49.2H204.8C204.3 45.6 201.8 43.4 198.3 43.4C194.8 43.4 192.3 45.6 191.8 49.2Z" fill="#EDF3F8"/>
  <path d="M216 61H212.7V41.1H216V45.3C217.2 42.6 219.5 41 222.5 41H223.4V44.2H222.3C218.6 44.2 216 46.8 216 50.8V61Z" fill="#EDF3F8"/>
  <path d="M225.5 50.9C225.5 45 229.7 40.8 235.5 40.8C241.4 40.8 245.4 44.9 245.4 50.7V51.8H228.9C229.4 55.8 232.2 58.3 236.2 58.3C239 58.3 241.2 57.2 242.8 55L244.9 57C242.9 59.6 240 61 236.2 61C230 61 225.5 56.8 225.5 50.9ZM229 49.2H242C241.5 45.6 239 43.4 235.5 43.4C232 43.4 229.5 45.6 229 49.2Z" fill="#EDF3F8"/>
  <path d="M267.7 61H264.4V57.2C262.7 59.8 259.9 61 256.8 61C251.4 61 247.3 56.8 247.3 50.9C247.3 45 251.4 40.8 256.8 40.8C259.9 40.8 262.7 42 264.4 44.6V30.1H267.7V61ZM264.4 50.9C264.4 46.7 261.5 43.7 257.5 43.7C253.5 43.7 250.7 46.7 250.7 50.9C250.7 55.1 253.5 58.1 257.5 58.1C261.5 58.1 264.4 55.1 264.4 50.9Z" fill="#EDF3F8"/>
  <path d="M284.9 61V30.1H288.2V44.6C289.9 42 292.7 40.8 295.8 40.8C301.2 40.8 305.3 45 305.3 50.9C305.3 56.8 301.2 61 295.8 61C292.7 61 289.9 59.8 288.2 57.2V61H284.9ZM301.9 50.9C301.9 46.7 299.1 43.7 295.1 43.7C291.1 43.7 288.2 46.7 288.2 50.9C288.2 55.1 291.1 58.1 295.1 58.1C299.1 58.1 301.9 55.1 301.9 50.9Z" fill="#EDF3F8"/>
  <path d="M311 68.8L314.8 60.3L306.5 41.1H310.1L316.6 56.5L323 41.1H326.5L314.4 68.8H311Z" fill="#EDF3F8"/>

  <path d="M332.5 27.8L346.7 27.8L341.8 35.2L327.6 35.2L332.5 27.8Z" fill="url(#brandGlow)" fill-opacity="0.86"/>
</svg>
